C:\Users\r0593348\3dpredictsim\Results\Batchsim_tmt_linear\Pog_s1_tmt_aCst_d05_k500_ig24_pas_GRF.mot
nRows=12
nColumns=19

name C:\Users\r0593348\3dpredictsim\Results\Batchsim_tmt_linear\Pog_s1_tmt_aCst_d05_k500_ig24_pas_GRF.mot
datacolumns 19
datarows 12
range 0.0000000000 0.1219611191
endheader
time 	ground_force_vx	ground_force_vy	ground_force_vz	ground_force_px	ground_force_py	ground_force_pz	1_ground_force_vx	1_ground_force_vy	1_ground_force_vz	1_ground_force_px	1_ground_force_py	1_ground_force_pz	ground_torque_x	ground_torque_y	ground_torque_z	1_ground_torque_x	1_ground_torque_y	1_ground_torque_z
        0.0000000000	      -95.5917579773	       90.7456567814	       44.1700573825	        0.1689940549	        0.0000000000	        0.0374172401	       94.1985108951	      470.5488491965	       -5.2316596838	       -0.3207105579	        0.0000000000	       -0.0347516806	        0.0000000000	        0.0000000000	        0.0000000000	        0.0000000000	        0.0000000000	        0.0000000000	
        0.0110873745	      -89.0041843199	      191.0162134319	       78.1128453009	        0.1750223162	        0.0000000000	        0.0355676941	       75.9055413211	      386.6157538324	      -10.6479613906	       -0.3165189853	        0.0000000000	       -0.0335714749	        0.0000000000	        0.0000000000	        0.0000000000	        0.0000000000	        0.0000000000	        0.0000000000	
        0.0221747489	      -44.9980745539	      348.5119547810	       17.7389473129	        0.1790800459	        0.0000000000	        0.0337647313	       55.2160128516	      298.4167635396	       -7.9788428576	       -0.3099726010	        0.0000000000	       -0.0310648554	        0.0000000000	        0.0000000000	        0.0000000000	        0.0000000000	        0.0000000000	        0.0000000000	
        0.0332621234	      -50.7431102713	      518.5583144121	       -1.7989181976	        0.1844726867	        0.0000000000	        0.0347647276	       28.1617955508	      198.2436080248	       -6.2861104230	       -0.2973346627	        0.0000000000	       -0.0254843837	        0.0000000000	        0.0000000000	        0.0000000000	        0.0000000000	        0.0000000000	        0.0000000000	
        0.0443494979	      -85.6515451374	      696.6465105464	       -9.0827490318	        0.1925258506	        0.0000000000	        0.0372259717	        8.1999398534	      139.1410172498	      -10.8034035170	       -0.2841309340	        0.0000000000	       -0.0187368329	        0.0000000000	        0.0000000000	        0.0000000000	        0.0000000000	        0.0000000000	        0.0000000000	
        0.0554368723	     -107.3710941014	      806.6173863680	      -12.5270659201	        0.1980840231	        0.0000000000	        0.0388087916	        1.2619168677	      109.8112340408	      -12.0312465318	       -0.2842741697	        0.0000000000	       -0.0190459558	        0.0000000000	        0.0000000000	        0.0000000000	        0.0000000000	        0.0000000000	        0.0000000000	
        0.0665242468	     -111.5590770717	      844.5953489778	      -13.3686216901	        0.2019080357	        0.0000000000	        0.0397603751	       -2.3426040442	       71.8121836262	      -11.0241753810	       -0.2837597987	        0.0000000000	       -0.0190986341	        0.0000000000	        0.0000000000	        0.0000000000	        0.0000000000	        0.0000000000	        0.0000000000	
        0.0776116213	     -106.5447942879	      839.7817242992	      -13.5364260361	        0.2049581336	        0.0000000000	        0.0403157993	       -8.0532909993	       29.8248636176	       -5.9451012001	       -0.2840182406	        0.0000000000	       -0.0189181639	        0.0000000000	        0.0000000000	        0.0000000000	        0.0000000000	        0.0000000000	        0.0000000000	
        0.0886989957	      -97.1793631196	      820.7561248376	      -13.9282691843	        0.2080815472	        0.0000000000	        0.0405981224	        0.0793866669	       -0.0782842346	        0.0015140849	        0.0000000000	        0.0000000000	        0.0000000000	        0.0000000000	        0.0000000000	        0.0000000000	        0.0000000000	        0.0000000000	        0.0000000000	
        0.0997863702	      -84.9557054104	      791.2670286212	      -14.6661507818	        0.2113476240	        0.0000000000	        0.0407169834	        0.0000912081	       -0.0000738054	       -0.0000052918	        0.0000000000	        0.0000000000	        0.0000000000	        0.0000000000	        0.0000000000	        0.0000000000	        0.0000000000	        0.0000000000	        0.0000000000	
        0.1108737447	      -73.5359766596	      757.3184882829	      -15.0279039061	        0.2150872620	        0.0000000000	        0.0407552359	        0.0000460549	       -0.0000324925	       -0.0000034354	        0.0000000000	        0.0000000000	        0.0000000000	        0.0000000000	        0.0000000000	        0.0000000000	        0.0000000000	        0.0000000000	        0.0000000000	
        0.1219611191	      -63.9101962097	      726.1864902991	      -15.1702088841	        0.2194666097	        0.0000000000	        0.0406772209	        0.0004978119	       -0.0003149675	       -0.0000413112	        0.0000000000	        0.0000000000	        0.0000000000	        0.0000000000	        0.0000000000	        0.0000000000	        0.0000000000	        0.0000000000	        0.0000000000	
